<svg xmlns="http://www.w3.org/2000/svg" viewBox="0 0 512 512">
  <!-- ヒビオル アプリアイコン - 日々を織る -->
  <!-- Sage Green テーマ（背景: primary-700相当） -->

  <!-- 背景（角丸四角形） -->
  <rect width="512" height="512" rx="96" fill="#1F3B26"/>

  <!-- シンボル（糸を織るモチーフ） -->
  <g transform="translate(104, 140) scale(3.8)" fill="none" stroke="#F8FAF8" stroke-width="10" stroke-linecap="round" stroke-linejoin="round">
    <path d="M56.272 75.776L11.8731 75.7411C10.2478 75.7478 8.66945 76.3514 7.42463 77.4424C6.17981 78.5334 5.35108 80.0393 5.0889 81.6868C4.82673 83.3344 5.14851 85.0142 5.9958 86.4213C6.8431 87.8283 8.15974 88.8694 9.70663 89.3554L55.2009 102.976C56.7644 103.446 58.4498 103.318 59.947 102.617C61.4443 101.916 62.6528 100.689 63.3503 99.1613C64.0478 97.6335 64.1874 95.9078 63.7435 94.3016C63.2995 92.6954 62.3018 91.3167 60.9338 90.419L57.6353 88.2665C56.4049 87.4586 55.4704 86.2589 54.9725 84.8479C54.4746 83.4369 54.4403 81.8911 54.8746 80.4432L62.0534 56.4658"/>
    <path d="M26.6986 56.4376L71.0974 56.4724C72.7227 56.4657 74.3011 55.8621 75.5459 54.7712C76.7907 53.6802 77.6195 52.1742 77.8816 50.5267C78.1438 48.8792 77.822 47.1994 76.9747 45.7923C76.1274 44.3852 74.8108 43.3442 73.2639 42.8582L27.7696 29.2372C26.2061 28.7679 24.5208 28.8954 23.0235 29.5963C21.5262 30.2972 20.3177 31.5244 19.6202 33.0522C18.9227 34.58 18.7831 36.3057 19.2271 37.9119C19.6711 39.5182 20.6688 40.8969 22.0367 41.7946L25.3353 43.9471C26.5656 44.7549 27.5001 45.9547 27.998 47.3656C28.4959 48.7766 28.5303 50.3225 28.0959 51.7704L20.9161 75.7511"/>
  </g>
</svg>
