<svg width="1200" height="630" viewBox="0 0 1200 630" fill="none" xmlns="http://www.w3.org/2000/svg">
  <defs>
    <linearGradient id="bgGradient" x1="0%" y1="0%" x2="0%" y2="100%">
      <stop offset="0%" style="stop-color:#5a9a6b"/>
      <stop offset="100%" style="stop-color:#4a8a5b"/>
    </linearGradient>
    <style>
      @import url('https://fonts.googleapis.com/css2?family=M+PLUS+Rounded+1c:wght@500;700&amp;display=swap');
      .catch-copy {
        font-family: 'M PLUS Rounded 1c', sans-serif;
        font-weight: 700;
      }
      .sub-copy {
        font-family: 'M PLUS Rounded 1c', sans-serif;
        font-weight: 500;
      }
    </style>
  </defs>

  <!-- Background -->
  <rect width="1200" height="630" fill="url(#bgGradient)"/>

  <!-- Logo (centered, scaled and positioned at top) -->
  <g transform="translate(371, 120) scale(1)">
    <path d="M414.223 119.456C413.635 119.522 413.127 119.059 413.127 118.468V18.9807C413.127 18.4284 413.575 17.9807 414.127 17.9807H431.649C432.201 17.9807 432.649 18.4284 432.649 18.9807V90.8369C432.649 91.5523 433.381 92.0349 434.036 91.7466C443.106 87.7527 448.707 83.5118 455.817 76.0897C456.446 75.4334 457.565 75.8724 457.565 76.7813V98.7805C457.565 99.0195 457.479 99.2515 457.322 99.4316C445.922 112.496 428.22 117.891 414.223 119.456ZM370.149 117.388C369.413 117.388 368.929 116.619 369.241 115.953C377.816 97.6517 382.817 78.7726 382.817 55.8687V20.3935C382.817 19.8412 383.264 19.3935 383.817 19.3935H401.21C401.763 19.3935 402.21 19.8412 402.21 20.3935V55.8687C402.21 75.6768 398.57 102.389 390.42 116.893C390.245 117.204 389.918 117.388 389.562 117.388H370.149Z" fill="white"/>
    <path d="M328.435 71.9824C328.426 70.9037 326.891 70.5748 326.406 71.5382C317.763 88.704 303.792 101.92 280.073 115.987C279.409 116.381 278.565 115.904 278.565 115.132V96.5199C278.565 96.1964 278.728 95.8882 278.992 95.7003C300.781 80.1558 308.172 72.2829 315.373 55.8844C315.662 55.2278 315.179 54.4926 314.462 54.4926H279.565C279.013 54.4926 278.565 54.0448 278.565 53.4926V35.5051C278.565 34.9528 279.013 34.5051 279.565 34.5051H327.398C327.95 34.5051 328.398 34.0574 328.398 33.5051V15.1277C328.398 14.5754 328.845 14.1277 329.398 14.1277H347.433C347.985 14.1277 348.433 14.5754 348.433 15.1277V33.5051C348.433 34.0574 348.881 34.5051 349.433 34.5051H362.075C362.627 34.5051 363.075 34.9528 363.075 35.5051V53.4926C363.075 54.0448 362.627 54.4926 362.075 54.4926H349.433C348.881 54.4926 348.433 54.9403 348.433 55.4926V119.086C348.433 119.638 347.985 120.086 347.433 120.086H329.811C329.262 120.086 328.815 119.643 328.811 119.094L328.435 71.9824Z" fill="white"/>
    <path d="M238.141 20.2925C237.588 20.2925 237.141 19.8448 237.141 19.2925V1C237.141 0.447716 237.588 0 238.141 0H245.902C246.454 0 246.902 0.447715 246.902 1V19.2925C246.902 19.8448 246.454 20.2925 245.902 20.2925H238.141ZM187.565 89.7752V18.467C187.565 17.9147 188.013 17.467 188.565 17.467H206.216C206.768 17.467 207.216 17.9147 207.216 18.467V33.4203C207.216 33.9725 207.663 34.4203 208.216 34.4203H261.185C261.738 34.4203 262.185 34.868 262.185 35.4203V53.5844C262.185 54.1367 261.738 54.5844 261.185 54.5844H208.216C207.663 54.5844 207.216 55.0321 207.216 55.5844V86.3075C207.216 95.2979 212.995 98.3803 221.215 98.7656C230.864 99.2669 245.405 98.5454 261.018 96.0046C261.629 95.9052 262.185 96.3752 262.185 96.9936V115.466C262.185 115.976 261.811 116.404 261.305 116.46C256.417 117.003 233.17 119.469 218.775 118.416C200.794 117.132 187.565 109.939 187.565 89.7752ZM253.424 20.2925C252.872 20.2925 252.424 19.8448 252.424 19.2925V1C252.424 0.447716 252.872 0 253.424 0H261.185C261.738 0 262.185 0.447715 262.185 1V19.2925C262.185 19.8448 261.738 20.2925 261.185 20.2925H253.424Z" fill="white"/>
    <path d="M127.775 118.416C109.794 117.132 96.5652 109.939 96.5652 89.7752V18.4669C96.5652 17.9146 97.0129 17.4669 97.5652 17.4669H115.216C115.768 17.4669 116.216 17.9146 116.216 18.4669V33.4202C116.216 33.9725 116.663 34.4202 117.216 34.4202H170.185C170.737 34.4202 171.185 34.8679 171.185 35.4202V53.5843C171.185 54.1366 170.737 54.5843 170.185 54.5843H117.216C116.663 54.5843 116.216 55.032 116.216 55.5843V86.3074C116.216 95.2978 121.995 98.3802 130.215 98.7655C139.864 99.2668 154.405 98.5453 170.018 96.0045C170.629 95.9052 171.185 96.3751 171.185 96.9936V115.466C171.185 115.975 170.811 116.404 170.305 116.46C165.417 117.003 142.17 119.469 127.775 118.416Z" fill="white"/>
    <path d="M56.272 75.776L11.8731 75.7411C10.2478 75.7478 8.66945 76.3514 7.42463 77.4424C6.17981 78.5334 5.35108 80.0393 5.0889 81.6868C4.82673 83.3344 5.14851 85.0142 5.9958 86.4213C6.8431 87.8283 8.15974 88.8694 9.70663 89.3554L55.2009 102.976C56.7644 103.446 58.4498 103.318 59.947 102.617C61.4443 101.916 62.6528 100.689 63.3503 99.1613C64.0478 97.6335 64.1874 95.9078 63.7435 94.3016C63.2995 92.6954 62.3018 91.3167 60.9338 90.419L57.6353 88.2665C56.4049 87.4586 55.4704 86.2589 54.9725 84.8479C54.4746 83.4369 54.4403 81.8911 54.8746 80.4432L62.0534 56.4658" stroke="white" stroke-width="10" stroke-linecap="round" stroke-linejoin="round"/>
    <path d="M26.6986 56.4376L71.0974 56.4724C72.7227 56.4657 74.3011 55.8621 75.5459 54.7712C76.7907 53.6802 77.6195 52.1742 77.8816 50.5267C78.1438 48.8792 77.822 47.1994 76.9747 45.7923C76.1274 44.3852 74.8108 43.3442 73.2639 42.8582L27.7696 29.2372C26.2061 28.7679 24.5208 28.8954 23.0235 29.5963C21.5262 30.2972 20.3177 31.5244 19.6202 33.0522C18.9227 34.58 18.7831 36.3057 19.2271 37.9119C19.6711 39.5182 20.6688 40.8969 22.0367 41.7946L25.3353 43.9471C26.5656 44.7549 27.5001 45.9547 27.998 47.3656C28.4959 48.7766 28.5303 50.3225 28.0959 51.7704L20.9161 75.7511" stroke="white" stroke-width="10" stroke-linecap="round" stroke-linejoin="round"/>
  </g>

  <!-- Catch Copy -->
  <text x="600" y="360" text-anchor="middle" class="catch-copy" fill="white" font-size="56">「続かない」を、終わりにする。</text>

  <!-- Sub Copy -->
  <text x="600" y="430" text-anchor="middle" class="sub-copy" fill="white" font-size="28" opacity="0.9">ADHD当事者のための瞬間記録アプリ</text>
</svg>
